<svg xmlns="http://www.w3.org/2000/svg" width="1920" height="1271">
    <rect width="1920" y="500" height="771"/>
    <path d="m1920 29-231 19.9-4.8.3-4.8.3-4.8.3-4.8.3-4.8.3-4.8.4-4.9.3-4.8.2-4.8.3-4.8.3-4.8.3-4.8.3-4.8.2-4.8.3-4.9.2-4.8.3-4.8.2-4.8.3-4.8.2-4.8.2-4.8.2-4.8.2-4.9.2-4.8.2-4.8.2-4.8.2-4.8.2-4.8.2-4.8.1-4.8.2-4.9.1-4.8.2-4.8.1-4.8.1-4.8.2h-4.8l-4.8.2-4.8.1-4.9.1h-4.8l-4.8.2h-4.8l-4.8.1h-4.8l-4.8.1h-4.8l-4.8.1h-14.5l-4.8.1h-28.9l-4.8-.1h-4.8l-4.8-.1h-4.8l-4.8-.2h-4.8l-4.9-.1-4.8-.1-4.8-.1-4.8-.1-4.8-.1-4.8-.1-4.8-.2h-4.8l-4.8-.2-4.9-.2-4.8-.1-4.8-.2-4.8-.1-4.8-.2-4.8-.2-4.8-.2-4.8-.2-4.8-.2-4.9-.2-4.8-.2-4.8-.2-4.8-.2-4.8-.2-4.8-.3-4.8-.2-4.8-.3-4.9-.2-4.8-.3-4.8-.2-4.8-.3-4.8-.3-4.8-.3-4.8-.3-4.8-.2-4.9-.3-4.8-.4-4.8-.3-4.8-.3-4.8-.3-4.8-.3-4.8-.3L726.6 9l-4.8-.3-4.8-.3-4.8-.3-4.8-.3-4.8-.3-4.9-.4L693 7l-4.8-.2-4.8-.3-4.8-.3-4.8-.3-4.8-.3-4.8-.2-4.9-.3-4.8-.2-4.8-.3-4.8-.2L640 4l-4.8-.2-4.8-.2-4.8-.2-4.8-.2-4.9-.2-4.8-.2-4.8-.2-4.8-.2-4.8-.2-4.8-.2H587l-4.8-.2-4.9-.1-4.8-.2-4.8-.1-4.8-.1-4.8-.2h-4.8l-4.8-.2-4.8-.1-4.9-.1H534l-4.8-.2h-4.8l-4.8-.1h-4.8L510 .1h-4.8l-4.8-.1H486l-4.8-.1h-28.9l-4.8.1h-4.8l-4.8.1H433l-4.8.2h-4.8l-4.9.1-4.8.1-4.8.1-4.8.1-4.8.1-4.8.1-4.8.2H385l-4.9.2-4.8.2-4.8.1-4.8.2-4.8.1-4.8.2-4.8.2-4.8.2-4.8.2-4.9.2-4.8.2-4.8.2-4.8.2-4.8.2-4.8.2-4.8.3-4.8.2-4.9.3-4.8.2-4.8.3-4.8.2-4.8.3-4.8.3-4.8.3-4.8.3-4.8.2-4.9.3-4.8.4-4.8.3-4.8.3-4.8.3-4.8.3-4.8.3L0 28.5V523h1920V29Z"/>
</svg>
