<svg xmlns="http://www.w3.org/2000/svg" width="1920" height="850" fill="none"><path fill="#07086C" d="m0 821 4.8-.5 4.8-.4 4.8-.5 4.8-.4 4.9-.5 4.8-.4 4.8-.5 4.8-.4 4.8-.5 4.8-.4 4.8-.5 4.8-.4 4.9-.5 4.8-.4 4.8-.5 4.8-.4 4.8-.5 4.8-.4 4.8-.4 4.8-.5 4.9-.4 4.8-.4 4.8-.5 4.8-.4 4.8-.4 4.8-.4 4.8-.4 4.8-.4 4.8-.5 4.9-.4 4.8-.4 4.8-.4 4.8-.4 4.8-.4 4.8-.4 4.8-.3 4.8-.4 4.9-.4 4.8-.4 4.8-.3 4.8-.4 4.8-.4 4.8-.3 4.8-.4 4.8-.3 4.9-.4 4.8-.3 4.8-.4 4.8-.3 4.8-.3 4.8-.3 4.8-.3 4.8-.3 4.9-.4 4.8-.3 4.8-.2 4.8-.3 4.8-.3 4.8-.3 4.8-.3 4.8-.2 4.8-.3 4.9-.2 4.8-.3 4.8-.2 4.8-.3 4.8-.2 4.8-.2 4.8-.2 4.8-.2 4.9-.2 4.8-.2 4.8-.2 4.8-.2 4.8-.2 4.8-.2 4.8-.1 4.8-.2 4.8-.1 4.9-.2 4.8-.1 4.8-.1 4.8-.2h4.8l4.8-.2 4.8-.1 4.8-.1h4.9l4.8-.2h4.8l4.8-.1h4.8l4.8-.1h4.8l4.8-.1h14.5l4.8-.1h28.9l4.8.1h4.8l4.8.1h4.8l4.8.2h4.8l4.8.1 4.9.1 4.8.1 4.8.1 4.8.1 4.8.1 4.8.2h4.8l4.8.2 4.9.2 4.8.1 4.8.2 4.8.1 4.8.2 4.8.2 4.8.2 4.8.2 4.9.2 4.8.2 4.8.2 4.8.2 4.8.2 4.8.2 4.8.3 4.8.2 4.8.3 4.9.2 4.8.3 4.8.2 4.8.3 4.8.3 4.8.3 4.8.3 4.8.2 4.9.3 4.8.4 4.8.3 4.8.3 4.8.3 4.8.3 4.8.3 4.8.4 4.9.3 4.8.4 4.8.3 4.8.4 4.8.3 4.8.4 4.8.4 4.8.3 4.8.4 4.9.4 4.8.4 4.8.3 4.8.4 4.8.4 4.8.4 4.8.4 4.8.4 4.9.4 4.8.5 4.8.4 4.8.4 4.8.4 4.8.4 4.8.4 4.8.5 4.9.4 4.8.4 4.8.5 4.8.4 4.8.4 4.8.5 4.8.4 4.8.5 4.9.4 4.8.5 4.8.4 4.8.5 4.8.4 4.8.5 4.8.4 4.8.5 4.8.4 4.9.5 4.8.4 4.8.5 4.8.4 4.8.5 4.8.5 4.8.4 4.8.5 4.9.4 4.8.5 4.8.4 4.8.5 4.8.4 4.8.5 4.8.4 4.8.5 4.9.4 4.8.5 4.8.4 4.8.5 4.8.4 4.8.5 4.8.4 4.8.4 4.9.5 4.8.4 4.8.4 4.8.5 4.8.4 4.8.4 4.8.4 4.8.4 4.8.4 4.9.5 4.8.4 4.8.4 4.8.4 4.8.4 4.8.4 4.8.4 4.8.3 4.9.4 4.8.4 4.8.4 4.8.3 4.8.4 4.8.4 4.8.3 4.8.4 4.9.3 4.8.4 4.8.3 4.8.4 4.8.3 4.8.3 4.8.3 4.8.3 4.8.3 4.9.4 4.8.3 4.8.2 4.8.3 4.8.3 4.8.3 4.8.3 4.8.2 4.8.3 4.9.2 4.8.3 4.8.2 4.8.3 4.8.2 4.8.2 4.8.2 4.8.2 4.9.2 4.8.2 4.8.2 4.8.2 4.8.2 4.8.2 4.8.1 4.8.2 4.9.1 4.8.2 4.8.1 4.8.1 4.8.2h4.8l4.8.2 4.8.1 4.8.1h4.9l4.8.2h4.8l4.8.1h4.8l4.8.1h4.8l4.8.1h14.5l4.8.1h28.9l4.8-.1h4.8l4.8-.1h4.8l4.8-.2h4.8l4.8-.1 4.9-.1 4.8-.1 4.8-.1 4.8-.1 4.8-.1 4.8-.2h4.8l4.8-.2 4.9-.2 4.8-.1 4.8-.2 4.8-.1 4.8-.2 4.8-.2 4.8-.2 4.8-.2 4.9-.2 4.8-.2 4.8-.2 4.8-.2 4.8-.2 4.8-.2 4.8-.3 4.8-.2 4.9-.3 4.8-.2 4.8-.3 4.8-.2 4.8-.3 4.8-.3 4.8-.3 4.8-.3 4.9-.2 4.8-.3 4.8-.4 4.8-.3 4.8-.3 4.8-.3 4.8-.3 4.8-.3 4.9-.4 4.8-.3 4.8-.4 4.8-.3 4.8-.4 4.8-.3 4.8-.4 4.8-.4 4.8-.3 4.9-.4 4.8-.4 4.8-.4 4.8-.3 4.8-.4 4.8-.4 4.8-.4 4.8-.4 4.9-.4 4.8-.4 4.8-.5 4.8-.4 4.8-.4 4.8-.4 4.8-.4 4.8-.4 4.9-.5 4.8-.4 4.8-.4 4.8-.5 4.8-.4 4.8-.4 4.8-.5 4.8-.4 4.8-.5 4.9-.4 4.8-.5 4.8-.4 4.8-.5 4.8-.4 4.8-.5 4.8-.4 4.8-.5 4.8-.4 4.9-.5 4.8-.4 4.8-.5 4.8-.4V0H0v821Z"/></svg>