<svg xmlns="http://www.w3.org/2000/svg" width="50" height="51">
    <path d="M13.33 45.83h-1.66v1.67h1.66v-1.67Z"/>
    <path
          d="M30.83 35.83H16.67v-12.5a.83.83 0 0 0-.84-.83h-15a.83.83 0 0 0-.83.83V50a.83.83 0 0 0 .83.83h30a.83.83 0 0 0 .84-.83V36.67a.83.83 0 0 0-.84-.84Zm-9.16 1.67H25v3.33h-3.33V37.5Zm-15-13.33H10v3.33H6.67v-3.33Zm-5 0H5v4.16a.83.83 0 0 0 .83.84h5a.83.83 0 0 0 .84-.84v-4.16H15v11.66H1.67V24.17Zm5 13.33H10v3.33H6.67V37.5Zm-5 0H5v4.17a.83.83 0 0 0 .83.83h5a.83.83 0 0 0 .84-.83V37.5H15v11.67H1.67V37.5ZM30 49.17H16.67V37.5H20v4.17a.83.83 0 0 0 .83.83h5a.83.83 0 0 0 .84-.83V37.5H30v11.67Z"/>
    <path d="M28.33 45.83h-1.66v1.67h1.66v-1.67Zm-15-13.33h-1.66v1.67h1.66V32.5Z"/>
    <path
          d="M48.97 10.81a.83.83 0 0 0 .61-.09.84.84 0 0 0 .42-.74V6.67a.83.83 0 0 0-.64-.81L25.2.02a.83.83 0 0 0-.39 0L.64 5.86a.83.83 0 0 0-.64.8v3.32c0 .17.05.34.14.49a.83.83 0 0 0 .89.34l1.47-.36v10.38h1.67V10.05L25 5.02l20.83 5.03v39.12h-5v-32.5a.83.83 0 0 0-.83-.84H10a.83.83 0 0 0-.83.84V20a.83.83 0 0 0 .83.83h29.17v1.67H18.33v1.67h20.84v1.66H18.33v1.67h20.84v1.67H18.33v1.66h20.84v18.34h-5.84v1.66H50v-1.66h-2.5V10.45l1.47.36Zm-38.14 8.36V17.5h28.34v1.67H10.83ZM25 3.33a.7.7 0 0 0-.2.03L1.67 8.94V7.32L25 1.7l23.33 5.63v1.62L25.2 3.36a.83.83 0 0 0-.2-.03Z"/>
    <path
          d="M26.67 13.33a2.5 2.5 0 1 0 0-5h-3.34a2.5 2.5 0 0 0 0 5h3.34Zm-4.17-2.5a.83.83 0 0 1 .83-.83h3.34a.83.83 0 1 1 0 1.67h-3.34a.83.83 0 0 1-.83-.84Z"/>
</svg>
