<svg xmlns="http://www.w3.org/2000/svg" width="50" height="36" ><path d="M11.67 25.83a5 5 0 1 0 0 10.01 5 5 0 0 0 0-10Zm0 8.34a3.34 3.34 0 1 1 0-6.68 3.34 3.34 0 0 1 0 6.68ZM40 25.83a5 5 0 1 0 .01 10.01 5 5 0 0 0-.01-10Zm0 8.34a3.34 3.34 0 1 1 0-6.68 3.34 3.34 0 0 1 0 6.68Z"/><path  d="m49.87 21.22-7.5-11.67a.83.83 0 0 0-.7-.38H32.5a.83.83 0 0 0-.83.83v20.83c0 .46.37.84.83.84h3.33V30h-2.5V10.83h7.88l7.12 11.08V30h-4.16v1.67h5c.46 0 .83-.38.83-.84v-9.16a.83.83 0 0 0-.13-.45Z"/><path  d="M36.67 20v-5.83h6.66V12.5h-7.5a.83.83 0 0 0-.83.83v7.5c0 .46.37.84.83.84h12.5V20H36.67ZM32.5 3.33H.83a.83.83 0 0 0-.83.84v26.66c0 .46.37.84.83.84H7.5V30H1.67V5h30v25H15.83v1.67H32.5c.46 0 .83-.38.83-.84V4.17a.83.83 0 0 0-.83-.84Z"/><path  d="M5.83 26.67h-5v1.66h5v-1.66Zm25.84 0H17.5v1.66h14.17v-1.66Zm17.5 0h-3.34v1.66h3.34v-1.66Zm-16.67-20H3.33v1.66H32.5V6.67ZM12.5 30h-1.67v1.67h1.67V30Zm28.33 0h-1.66v1.67h1.66V30ZM15 0H3.33v1.67H15V0ZM1.67 0H0v1.67h1.67V0Z"/></svg>
