<svg xmlns="http://www.w3.org/2000/svg" width="36" height="50" ><path  d="M28.67 19.52a24.89 24.89 0 0 0 4.4-12.23h1.48c.47 0 .85-.38.85-.85V.85a.85.85 0 0 0-.85-.85H.85A.85.85 0 0 0 0 .85v5.59c0 .47.38.85.85.85h1.49a24.89 24.89 0 0 0 4.38 12.23A18 18 0 0 0 12.44 25a17.95 17.95 0 0 0-5.72 5.48A24.89 24.89 0 0 0 2.34 42.7H.85a.85.85 0 0 0-.85.85v5.59c0 .47.38.85.85.85h33.7c.47 0 .85-.38.85-.85v-5.59a.85.85 0 0 0-.85-.85h-1.49a24.89 24.89 0 0 0-4.39-12.23A17.94 17.94 0 0 0 22.96 25a17.98 17.98 0 0 0 5.72-5.48ZM1.7 5.58V1.7h32v3.88m0 38.84v3.88h-32v-3.88M20.66 24.2c-.72.24-.72 1.35 0 1.6 2.39.89 4.67 2.84 6.61 5.64a23.14 23.14 0 0 1 4.09 11.26H4.04a23.13 23.13 0 0 1 4.08-11.26c1.95-2.8 4.23-4.75 6.62-5.65.72-.24.72-1.35 0-1.6-2.39-.9-4.67-2.85-6.62-5.65A23.14 23.14 0 0 1 4.04 7.3h27.32a23.13 23.13 0 0 1-4.09 11.26c-1.93 2.8-4.22 4.75-6.61 5.66Z"/><path  d="M6.82 40.4c0 .47.38.85.85.85h20.06c.47 0 .85-.38.85-.85a5.39 5.39 0 0 0-5.38-5.38h-11a5.39 5.39 0 0 0-5.38 5.38Zm19.96-.85H8.62a3.68 3.68 0 0 1 3.58-2.83h11c1.74 0 3.2 1.2 3.58 2.83Zm-.22-28.95H8.84a.85.85 0 0 0-.85.84c0 5.34 4.33 11.77 9.71 11.77 5.38 0 9.71-6.43 9.71-11.77a.85.85 0 0 0-.85-.85ZM17.7 21.5c-4.05 0-7.55-4.87-7.97-9.21h15.94c-.42 4.34-3.92 9.21-7.97 9.21Zm0 5.77c.47 0 .85-.38.85-.85V25a.85.85 0 1 0-1.7 0v1.42c0 .47.38.85.85.85Zm-.85 3.81a.85.85 0 1 0 1.7 0v-.98a.85.85 0 1 0-1.7 0v.98Z"/></svg>
