<svg xmlns="http://www.w3.org/2000/svg" width="52" height="44"><path  d="M2.43 0A2.41 2.41 0 0 0 0 2.4v30.52c0 1.32 1.08 2.4 2.43 2.4H28.2l-2.09 3.58a.8.8 0 0 0 .9 1.18l3.63-.94.98 3.61a.81.81 0 0 0 1.48.2l4.44-7.63h2.74l4.43 7.63c.37.62 1.3.5 1.49-.2l.98-3.61 3.62.94a.8.8 0 0 0 .9-1.18l-2.08-3.59a2.41 2.41 0 0 0 2.2-2.4V2.42c0-1.35-1.1-2.41-2.44-2.41H2.43Zm0 1.6h46.96a.8.8 0 0 1 .82.8v30.52a.8.8 0 0 1-.82.8h-.7l-2.8-4.81a7.95 7.95 0 0 0 1.1-4.03 8.07 8.07 0 0 0-8.1-8.03 8.08 8.08 0 0 0-8.1 8.03c0 1.49.41 2.88 1.12 4.08l-2.77 4.76H2.43a.8.8 0 0 1-.81-.8V2.4c0-.45.34-.8.8-.8Zm17.82 3.21c-1.09 0-1.09 1.58 0 1.6h11.33c1.09 0 1.09-1.57 0-1.6H20.25ZM7.29 10.44h37.25c1.08 0 1.08-1.6 0-1.6H7.29c-1.08 0-1.08 1.6 0 1.6Zm0 2.4c-1.08 0-1.08 1.6 0 1.6h37.25c1.08 0 1.08-1.6 0-1.6H7.29Zm31.6 5.62a6.46 6.46 0 0 1 6.48 6.42 6.46 6.46 0 0 1-6.48 6.43 6.44 6.44 0 0 1-6.48-6.43c0-3.55 2.9-6.42 6.48-6.42Zm-.73 1.83-.95 2.35-2.44.2c-.7.07-.99.98-.45 1.45l1.86 1.66-.57 2.48c-.16.7.59 1.27 1.19.89l2.1-1.33 2.09 1.33c.6.37 1.34-.19 1.18-.9l-.57-2.47 1.86-1.66c.54-.48.25-1.39-.45-1.44l-2.45-.21-.94-2.35a.76.76 0 0 0-.73-.5c-.34 0-.6.19-.73.5Zm.73 2.45.4 1a.8.8 0 0 0 .67.5l1.03.08-.78.7a.84.84 0 0 0-.26.82l.24 1.05-.89-.56a.77.77 0 0 0-.82 0l-.89.56.24-1.05a.84.84 0 0 0-.25-.81l-.8-.7 1.04-.1a.8.8 0 0 0 .67-.5l.4-1ZM7.29 28.9c-1.08 0-1.08 1.6 0 1.6h11.34c1.08 0 1.08-1.6 0-1.6H7.29Zm37.56 1.42 4.5 7.72-2.53-.66a.81.81 0 0 0-.99.57l-.68 2.52-4.51-7.75a8.1 8.1 0 0 0 4.2-2.4Zm-11.88.04a8.11 8.11 0 0 0 4.22 2.38l-4.5 7.73-.68-2.52a.81.81 0 0 0-1-.57l-2.52.66 4.48-7.68Zm5.95 2.62.43.74h-.86l.43-.74Z"/></svg>
