<svg xmlns="http://www.w3.org/2000/svg" width="51" height="51"><path  d="M2.59 35.97h13.27v12.5a2.5 2.5 0 0 0 2.5 2.5h20a2.5 2.5 0 0 0 2.5-2.5v-20a2.5 2.5 0 0 0-2.5-2.5h-12.5V12.7a1.73 1.73 0 0 0-1.73-1.73H3.36a2.5 2.5 0 0 0-2.5 2.5v20.77a1.73 1.73 0 0 0 1.73 1.73Zm19.94 0h.83a2.5 2.5 0 0 0 2.5-2.5v-.83h8.33V44.3H22.53v-8.34Zm1.66-2.5c0 .46-.37.84-.83.84H5.9L24.2 16v17.46Zm14.17-5.83c.46 0 .83.37.83.83v20c0 .46-.37.84-.83.84h-20a.83.83 0 0 1-.83-.84v-12.5h3.33v8.34c0 .92.74 1.66 1.67 1.66h11.66c.92 0 1.67-.74 1.67-1.66V32.64c0-.92-.75-1.67-1.67-1.67h-8.33v-3.33h12.5ZM24.19 12.7v.96L3.55 34.31h-.96l-.07-.07v-1.27l20.33-20.33h1.28l.06.06Zm-20.83-.06H20.5L2.52 30.6V13.47c0-.46.38-.83.84-.83ZM33.16 1.1a1.67 1.67 0 0 0-1.83.38l-5.47 5.81a1.67 1.67 0 0 0-.02 2.34l5.5 5.85a1.67 1.67 0 0 0 2.85-1.17v-2.5h5.83v6.66h-2.5a1.67 1.67 0 0 0-1.15 2.87l5.81 5.47a1.67 1.67 0 0 0 2.34.01l5.85-5.5a1.67 1.67 0 0 0-1.18-2.85h-2.5V7.64a2.5 2.5 0 0 0-2.5-2.5h-10v-2.5c0-.68-.4-1.28-1.03-1.54ZM44.2 6.8c.46 0 .83.38.83.84V19.3c0 .46.38.83.84.83l3.35-.02-5.87 5.49-5.82-5.47h3.34c.46 0 .83-.37.83-.83v-7.5c0-.92-.74-1.67-1.67-1.67h-6.66a.83.83 0 0 0-.84.83l.02 3.35-5.49-5.86 5.47-5.82v3.33c0 .46.38.84.84.84H44.2Z"/></svg>
