<svg xmlns="http://www.w3.org/2000/svg" width="50" height="50"><path  d="M49.52 12.16 25.4.09a.86.86 0 0 0-.78 0L.48 12.16a.86.86 0 0 0-.48.77v24.14a.86.86 0 0 0 .48.78L24.6 49.9a.86.86 0 0 0 .78 0l24.13-12.06a.86.86 0 0 0 .48-.78V12.93a.86.86 0 0 0-.48-.77ZM25 24.04l-6.74-3.37L39.8 9.22l7.41 3.71L25 24.03Zm-13.64-6.82L32.9 5.78l5 2.5-21.53 11.44-5-2.5Zm-1.02 1.42 5.18 2.58v6.87l-1.98-1.98a.86.86 0 0 0-.6-.25h-2.6v-7.22ZM25 1.83l6.01 3L9.47 16.27 2.8 12.93 25 1.83ZM1.72 14.33l6.9 3.44v8.95a.86.86 0 0 0 .86.87h3.1l3.19 3.2a.86.86 0 0 0 1.47-.62v-8.09l6.9 3.45v22.21L1.72 36.54V14.33Zm24.14 33.41v-22.2l22.42-11.21v22.2L25.86 47.75Z"/></svg>
