<svg width="15" height="15" viewBox="0 0 15 15" fill="none" xmlns="http://www.w3.org/2000/svg">
<path d="M14.6616 11.453C14.6209 11.3304 14.3621 11.1499 13.8852 10.9117C13.756 10.8366 13.5719 10.7346 13.3338 10.6052C13.0954 10.4757 12.879 10.3565 12.685 10.2475C12.4906 10.1385 12.3085 10.033 12.1383 9.93095C12.1111 9.91052 12.026 9.85101 11.883 9.75204C11.7398 9.65335 11.6191 9.5801 11.5201 9.53233C11.4214 9.48485 11.3243 9.46094 11.2289 9.46094C11.0927 9.46094 10.9226 9.55806 10.7183 9.75204C10.5141 9.94626 10.3267 10.1572 10.1565 10.3856C9.98626 10.6139 9.80573 10.8248 9.61521 11.019C9.4244 11.2132 9.26763 11.3102 9.14517 11.3102C9.08369 11.3102 9.00704 11.293 8.91518 11.2592C8.82336 11.2252 8.75351 11.196 8.70555 11.1725C8.65803 11.1485 8.57648 11.101 8.46061 11.0292C8.34452 10.9577 8.27996 10.9185 8.26637 10.9117C7.33327 10.3939 6.53302 9.80138 5.86545 9.13414C5.19809 8.46651 4.60542 7.66637 4.08779 6.73323C4.081 6.71959 4.04174 6.65486 3.97028 6.53914C3.89871 6.42331 3.85101 6.34169 3.82717 6.29389C3.80334 6.24626 3.77439 6.17641 3.74039 6.08449C3.7064 5.99256 3.68933 5.91599 3.68933 5.85462C3.68933 5.7321 3.78641 5.57537 3.98055 5.38465C4.17464 5.19403 4.38585 5.01347 4.61394 4.84333C4.84221 4.67318 5.0532 4.48582 5.24737 4.28157C5.44147 4.07722 5.53852 3.90704 5.53852 3.77085C5.53852 3.67556 5.51468 3.57841 5.46705 3.47968C5.41939 3.38074 5.34617 3.26001 5.24737 3.11692C5.14853 2.97389 5.08895 2.88884 5.06848 2.86147C4.96642 2.69132 4.86096 2.50915 4.75186 2.31503C4.64275 2.12094 4.52365 1.9046 4.39419 1.66625C4.26482 1.42801 4.16273 1.24405 4.08772 1.11466C3.84947 0.637999 3.669 0.379075 3.54637 0.338355C3.49867 0.317923 3.4271 0.307617 3.33184 0.307617C3.14783 0.307617 2.90779 0.341611 2.61152 0.409813C2.31515 0.477907 2.08194 0.549329 1.91164 0.624366C1.57108 0.767318 1.21011 1.18276 0.828646 1.87053C0.481281 2.51062 0.307617 3.14415 0.307617 3.77067C0.307617 3.95441 0.319534 4.13318 0.343366 4.30702C0.367199 4.48067 0.409783 4.67651 0.471154 4.8945C0.532418 5.11241 0.581837 5.27429 0.619197 5.37971C0.656592 5.4852 0.726408 5.67417 0.82861 5.94669C0.930669 6.21914 0.99204 6.38592 1.01247 6.44722C1.25084 7.11471 1.5335 7.7106 1.8604 8.23506C2.39824 9.1068 3.13223 10.0077 4.06192 10.9374C4.99165 11.867 5.89243 12.6009 6.76429 13.139C7.28872 13.4658 7.88486 13.7484 8.55229 13.987C8.61362 14.0073 8.78042 14.0685 9.05278 14.1709C9.32524 14.273 9.51429 14.3429 9.61979 14.3803C9.72532 14.4178 9.88724 14.4673 10.105 14.5286C10.3232 14.59 10.5189 14.6326 10.6925 14.6566C10.8663 14.6801 11.0451 14.6922 11.2289 14.6922C11.8555 14.6922 12.4891 14.5185 13.1293 14.1712C13.817 13.7899 14.2324 13.4289 14.3754 13.0881C14.4506 12.9179 14.5219 12.6847 14.59 12.3883C14.6583 12.0921 14.6922 11.8521 14.6922 11.6682C14.6924 11.5725 14.6822 11.5011 14.6616 11.453Z" fill="#07086C"/>
</svg>
