<svg xmlns="http://www.w3.org/2000/svg" width="1920" height="728"><path d="m1920 29-231 19.9-4.8.3-4.8.3-4.8.3-4.8.3-4.8.3-4.8.3-4.9.3-4.8.3-4.8.3-4.8.3-4.8.3-4.8.3-4.8.2-4.8.3-4.9.2-4.8.3-4.8.2-4.8.3-4.8.2-4.8.2-4.8.2-4.8.2-4.8.2-4.9.2-4.8.2-4.8.2-4.8.2-4.8.2-4.8.1-4.8.2-4.8.1-4.9.2-4.8.1-4.8.2h-4.8l-4.8.2h-4.8l-4.8.2-4.8.1h-4.9l-4.8.2h-4.8l-4.8.1h-4.8l-4.8.1h-4.8l-4.8.1h-19.3l-4.8.1h-24.1l-4.8-.1h-4.8l-4.8-.1h-4.8l-4.8-.2h-4.8l-4.8-.1-4.9-.1-4.8-.1-4.8-.1-4.8-.1-4.8-.1-4.8-.1-4.8-.2-4.8-.1-4.9-.2-4.8-.1-4.8-.2-4.8-.1-4.8-.2-4.8-.2-4.8-.2-4.8-.2-4.8-.2-4.9-.2-4.8-.2-4.8-.2-4.8-.2-4.8-.2-4.8-.3-4.8-.2-4.8-.3-4.9-.2-4.8-.3-4.8-.2-4.8-.3-4.8-.3-4.8-.3-4.8-.3-4.8-.2-4.9-.3-4.8-.3-4.8-.4-4.8-.3-4.8-.3-4.8-.3-4.8-.3-462-39.7-4.8-.4-4.8-.3-4.8-.3-4.8-.3-4.8-.3-4.9-.3L693 7l-4.8-.3-4.8-.3-4.8-.3-4.8-.3-4.8-.3-4.8-.2-4.8-.3-4.9-.2-4.8-.3-4.8-.2L640 4l-4.8-.2-4.8-.2-4.8-.2-4.8-.2-4.9-.2-4.8-.2-4.8-.2-4.8-.2-4.8-.2-4.8-.2H587l-4.8-.2-4.9-.1-4.8-.2-4.8-.1-4.8-.1-4.8-.2h-4.8l-4.8-.2-4.8-.1-4.8-.1H534l-4.8-.2h-4.8l-4.8-.1h-4.8L510 .1h-4.8l-4.8-.1h-19.3l-4.8-.1h-24l-4.8.1h-4.8l-4.8.1h-4.8l-4.8.2h-4.8l-4.9.1-4.8.1-4.8.1-4.8.1-4.8.1-4.8.1-4.8.1-4.8.2-4.9.1-4.8.2-4.8.1-4.8.2-4.8.1-4.8.2-4.8.2-4.8.2-4.9.2-4.8.2-4.8.2-4.8.2-4.8.2-4.8.2-4.8.2-4.8.3-4.8.2-4.9.3-4.8.2-4.8.3-4.8.2-4.8.3-4.8.3-4.8.3-4.8.3-4.9.3-4.8.3-4.8.3-4.8.3-4.8.3-4.8.3-4.8.3-4.8.3L0 28.5V523h1920V29Z"/><path d="m0 699 231-19.9 4.8-.3 4.8-.3 4.8-.3 4.8-.3 4.8-.3 4.9-.4 4.8-.3 4.8-.2 4.8-.3 4.8-.3 4.8-.3 4.8-.3 4.8-.2 4.9-.3 4.8-.2 4.8-.3 4.8-.2 4.8-.3 4.8-.2 4.8-.2 4.8-.2 4.8-.2 4.9-.2 4.8-.2 4.8-.2 4.8-.2 4.8-.2 4.8-.2 4.8-.1 4.8-.2 4.9-.1 4.8-.2 4.8-.1 4.8-.1 4.8-.2h4.8l4.8-.2 4.8-.1 4.9-.1h4.8l4.8-.2h4.8l4.8-.1h4.8l4.8-.1h4.8l4.8-.1h19.3l4.8-.1h24.1l4.8.1h4.8l4.8.1h4.8l4.8.2h4.8l4.8.1 4.9.1 4.8.1 4.8.1 4.8.1 4.8.1 4.8.2h4.8l4.8.2 4.9.2 4.8.1 4.8.2 4.8.1 4.8.2 4.8.2 4.8.2 4.8.2 4.8.2 4.9.2 4.8.2 4.8.2 4.8.2 4.8.2 4.8.3 4.8.2 4.8.3 4.9.2 4.8.3 4.8.2 4.8.3 4.8.3 4.8.3 4.8.3 4.8.3 4.9.3 4.8.3 4.8.3 4.8.3 4.8.3 4.8.3 4.8.4 462 39.7 4.8.3 4.8.3 4.8.3 4.8.3 4.8.3 4.9.4 4.8.3 4.8.3 4.8.2 4.8.3 4.8.3 4.8.3 4.8.2 4.8.3 4.9.2 4.8.3 4.8.2 4.8.3 4.8.2 4.8.2 4.8.2 4.8.2 4.9.2 4.8.2 4.8.2 4.8.2 4.8.2 4.8.2 4.8.1 4.8.2 4.9.1 4.8.2 4.8.1 4.8.1 4.8.2h4.8l4.8.2 4.8.1 4.8.1h4.9l4.8.2h4.8l4.8.1h4.8l4.8.1h4.8l4.8.1h19.3l4.8.1h24.1l4.8-.1h4.8l4.8-.1h4.8l4.8-.2h4.8l4.8-.1 4.9-.1 4.8-.1 4.8-.1 4.8-.1 4.8-.1 4.8-.2h4.8l4.8-.2 4.9-.2 4.8-.1 4.8-.2 4.8-.1 4.8-.2 4.8-.2 4.8-.2 4.8-.2 4.9-.2 4.8-.2 4.8-.2 4.8-.2 4.8-.2 4.8-.2 4.8-.3 4.8-.2 4.8-.3 4.9-.2 4.8-.3 4.8-.2 4.8-.3 4.8-.3 4.8-.3 4.8-.3 4.8-.3 4.9-.3 4.8-.3 4.8-.3 4.8-.3 4.8-.3 4.8-.3 4.8-.3 226.2-19.4V181H0v518Z"/></svg>